# FreeCAD v1.1 build0 Arch module
# https://www.freecad.org
o Body
v 0.1 0.0 0.0
v 0.097094 0.7 0.023932
v 0.097094 0.0 0.023932
v 0.1 0.7 0.0
v 0.088546 0.7 0.046472
v 0.088546 0.0 0.046472
v 0.074851 0.7 0.066312
v 0.074851 0.0 0.066312
v 0.056806 0.7 0.082298
v 0.056806 0.0 0.082298
v 0.03546 0.0 0.093502
v 0.03546 0.7 0.093502
v 0.012054 0.7 0.099271
v 0.012054 0.0 0.099271
v -0.012054 0.7 0.099271
v -0.012054 0.0 0.099271
v -0.03546 0.7 0.093502
v -0.03546 0.0 0.093502
v -0.056806 0.7 0.082298
v -0.056806 0.0 0.082298
v -0.074851 0.0 0.066312
v -0.074851 0.7 0.066312
v -0.088546 0.7 0.046472
v -0.088546 0.0 0.046472
v -0.097094 0.7 0.023932
v -0.097094 0.0 0.023932
v -0.1 0.0 0.0
v -0.1 0.7 0.0
v -0.097094 0.7 -0.023932
v -0.097094 0.0 -0.023932
v -0.088546 0.7 -0.046472
v -0.088546 0.0 -0.046472
v -0.074851 0.7 -0.066312
v -0.074851 0.0 -0.066312
v -0.056806 0.7 -0.082298
v -0.056806 0.0 -0.082298
v -0.03546 0.7 -0.093502
v -0.03546 0.0 -0.093502
v -0.012054 0.7 -0.099271
v -0.012054 0.0 -0.099271
v 0.012054 0.7 -0.099271
v 0.012054 0.0 -0.099271
v 0.03546 0.0 -0.093502
v 0.03546 0.7 -0.093502
v 0.056806 0.7 -0.082298
v 0.056806 0.0 -0.082298
v 0.074851 0.7 -0.066312
v 0.074851 0.0 -0.066312
v 0.088546 0.7 -0.046472
v 0.088546 0.0 -0.046472
v 0.097094 0.7 -0.023932
v 0.097094 0.0 -0.023932
v 0.149702 0.7 -0.132625
v 0.113613 0.7 -0.164597
v 0.177091 0.7 -0.092945
v 0.070921 0.7 -0.187003
v 0.194188 0.7 -0.047863
v 0.024107 0.7 -0.198542
v 0.2 0.7 0.0
v -0.024107 0.7 -0.198542
v 0.194188 0.7 0.047863
v -0.070921 0.7 -0.187003
v 0.177091 0.7 0.092945
v -0.113613 0.7 -0.164597
v 0.149702 0.7 0.132625
v -0.149702 0.7 -0.132625
v 0.113613 0.7 0.164597
v -0.177091 0.7 -0.092945
v 0.070921 0.7 0.187003
v -0.194188 0.7 -0.047863
v 0.024107 0.7 0.198542
v -0.2 0.7 0.0
v -0.024107 0.7 0.198542
v -0.194188 0.7 0.047863
v -0.070921 0.7 0.187003
v -0.177091 0.7 0.092945
v -0.113613 0.7 0.164597
v -0.149702 0.7 0.132625
v 0.15 0.775 0.0
v 0.141873 0.775 0.048705
v 0.118371 0.775 0.092132
v 0.082042 0.775 0.125575
v 0.1 0.85 0.0
v 0.094582 0.85 0.03247
v 0.036823 0.775 0.14541
v 0.078914 0.85 0.061421
v -0.012387 0.775 0.149488
v 0.054695 0.85 0.083717
v -0.060254 0.775 0.137366
v 0.05 0.925 0.0
v 0.047291 0.925 0.016235
v 0.0 1.0 0.0
v 0.024549 0.85 0.09694
v -0.101592 0.775 0.110359
v 0.039457 0.925 0.030711
v -0.008258 0.85 0.099658
v -0.131921 0.775 0.071392
v 0.027347 0.925 0.041858
v -0.04017 0.85 0.091577
v -0.147954 0.775 0.024689
v 0.012274 0.925 0.04847
v -0.067728 0.85 0.073572
v -0.147954 0.775 -0.024689
v -0.004129 0.925 0.049829
v -0.087947 0.85 0.047595
v -0.131921 0.775 -0.071392
v -0.020085 0.925 0.045789
v -0.098636 0.85 0.016459
v -0.101592 0.775 -0.110359
v -0.033864 0.925 0.036786
v -0.098636 0.85 -0.016459
v -0.060254 0.775 -0.137366
v -0.043974 0.925 0.023797
v -0.087947 0.85 -0.047595
v -0.012387 0.775 -0.149488
v -0.049318 0.925 0.00823
v -0.067728 0.85 -0.073572
v 0.036823 0.775 -0.14541
v -0.049318 0.925 -0.00823
v -0.04017 0.85 -0.091577
v 0.082042 0.775 -0.125575
v -0.043974 0.925 -0.023797
v -0.008258 0.85 -0.099658
v 0.118371 0.775 -0.092132
v -0.033864 0.925 -0.036786
v 0.024549 0.85 -0.09694
v 0.141873 0.775 -0.048705
v -0.020085 0.925 -0.045789
v 0.054695 0.85 -0.083717
v -0.004129 0.925 -0.049829
v 0.078914 0.85 -0.061421
v 0.012274 0.925 -0.04847
v 0.094582 0.85 -0.03247
v 0.027347 0.925 -0.041858
v 0.039457 0.925 -0.030711
v 0.047291 0.925 -0.016235
vn 0.992709 0.0 0.120537
vn 0.992709 0.0 0.120537
vn 0.935016 0.0 0.354605
vn 0.935016 0.0 0.354605
vn 0.822984 0.0 0.568065
vn 0.822984 0.0 0.568065
vn 0.663123 0.0 0.748511
vn 0.464723 -0.0 0.885456
vn 0.663123 0.0 0.748511
vn 0.464723 0.0 0.885456
vn 0.239316 0.0 0.970942
vn 0.239316 0.0 0.970942
vn 0.0 0.0 1.0
vn 0.0 0.0 1.0
vn -0.239316 0.0 0.970942
vn -0.239316 0.0 0.970942
vn -0.464723 0.0 0.885456
vn -0.663123 0.0 0.748511
vn -0.464723 0.0 0.885456
vn -0.663123 0.0 0.748511
vn -0.822984 0.0 0.568065
vn -0.822984 0.0 0.568065
vn -0.935016 0.0 0.354605
vn -0.935016 0.0 0.354605
vn -0.992709 0.0 0.120537
vn -0.992709 0.0 0.120537
vn -0.992709 -0.0 -0.120537
vn -0.992709 0.0 -0.120537
vn -0.935016 0.0 -0.354605
vn -0.935016 -0.0 -0.354605
vn -0.822984 0.0 -0.568065
vn -0.822984 -0.0 -0.568065
vn -0.663123 0.0 -0.748511
vn -0.663123 -0.0 -0.748511
vn -0.464723 0.0 -0.885456
vn -0.464723 -0.0 -0.885456
vn -0.239316 0.0 -0.970942
vn -0.239316 -0.0 -0.970942
vn 0.0 0.0 -1.0
vn 0.239316 0.0 -0.970942
vn 0.0 0.0 -1.0
vn 0.239316 0.0 -0.970942
vn 0.464723 0.0 -0.885456
vn 0.464723 0.0 -0.885456
vn 0.663123 0.0 -0.748511
vn 0.663123 0.0 -0.748511
vn 0.822984 0.0 -0.568065
vn 0.822984 0.0 -0.568065
vn 0.935016 0.0 -0.354605
vn 0.992709 0.0 -0.120537
vn 0.935016 0.0 -0.354605
vn 0.992709 0.0 -0.120537
vn -0.0 -1.0 0.0
vn 0.0 -1.0 -0.0
vn -0.0 -1.0 0.0
vn 0.0 -1.0 0.0
vn -0.0 -1.0 0.0
vn 0.0 -1.0 -0.0
vn -0.0 -1.0 0.0
vn 0.0 -1.0 0.0
vn -0.0 -1.0 0.0
vn 0.0 -1.0 -0.0
vn -0.0 -1.0 0.0
vn 0.0 -1.0 0.0
vn 0.0 -1.0 0.0
vn -0.0 -1.0 -0.0
vn 0.0 -1.0 -0.0
vn 0.0 -1.0 0.0
vn 0.0 -1.0 0.0
vn -0.0 -1.0 0.0
vn 0.0 -1.0 -0.0
vn 0.0 -1.0 0.0
vn 0.0 -1.0 0.0
vn -0.0 -1.0 0.0
vn 0.0 -1.0 -0.0
vn 0.0 -1.0 0.0
vn 0.0 -1.0 -0.0
vn 0.0 -1.0 0.0
vn -0.0 -1.0 0.0
vn 0.0 -1.0 0.0
vn 0.0 -1.0 0.0
vn 0.0 -1.0 -0.0
vn -0.0 -1.0 0.0
vn 0.0 -1.0 0.0
vn 0.0 -1.0 0.0
vn 0.0 -1.0 -0.0
vn -0.0 -1.0 0.0
vn 0.0 -1.0 0.0
vn -0.0 -1.0 -0.0
vn -0.0 -1.0 0.0
vn 0.0 -1.0 0.0
vn -0.0 -1.0 0.0
vn 0.0 -1.0 0.0
vn -0.0 -1.0 0.0
vn -0.0 -1.0 0.0
vn 0.0 -1.0 -0.0
vn 0.0 -1.0 0.0
vn -0.0 -1.0 0.0
vn 0.0 -1.0 -0.0
vn -0.0 -1.0 0.0
vn 0.0 -1.0 0.0
vn -0.0 -1.0 0.0
vn -0.0 -1.0 0.0
vn 0.0 -1.0 -0.0
vn 0.827836 0.551891 0.100518
vn 0.827836 0.551891 -0.100518
vn 0.784591 0.543947 0.297556
vn 0.813303 0.565791 0.135716
vn 0.689868 0.545282 0.476182
vn 0.722616 0.569999 0.39106
vn 0.551264 0.555801 0.622249
vn 0.388519 0.548695 0.740261
vn 0.560023 0.562396 0.608347
vn 0.824144 0.549429 0.137525
vn 0.824145 0.549429 0.137526
vn 0.200903 0.543373 0.815098
vn 0.330551 0.568201 0.753581
vn 0.734836 0.549429 0.397673
vn 0.734836 0.549429 0.397673
vn 0.0 0.547372 0.83689
vn -0.198591 0.558017 0.805716
vn 0.067906 0.569041 0.819501
vn 0.565896 0.549429 0.614727
vn 0.565896 0.549429 0.614727
vn -0.389268 0.546233 0.741687
vn -0.20333 0.560321 0.80293
vn 0.824144 0.54943 0.137525
vn 0.824144 0.54943 0.137525
vn 0.824144 0.54943 0.137525
vn 0.335633 0.549429 0.765165
vn 0.335633 0.549429 0.765165
vn -0.556604 0.543564 0.628276
vn -0.449534 0.56964 0.688063
vn 0.734836 0.54943 0.397673
vn 0.734836 0.54943 0.397673
vn 0.734836 0.54943 0.397673
vn 0.068998 0.549429 0.832686
vn 0.068998 0.549429 0.832686
vn -0.687217 0.550203 0.474352
vn -0.778567 0.553758 0.295271
vn -0.649965 0.567118 0.505888
vn 0.565896 0.54943 0.614727
vn 0.565896 0.54943 0.614727
vn 0.565896 0.54943 0.614727
vn -0.205113 0.549429 0.809973
vn -0.205113 0.549429 0.809973
vn -0.832633 0.54452 0.1011
vn -0.780891 0.564218 0.26808
vn 0.335633 0.54943 0.765165
vn 0.335633 0.54943 0.765165
vn 0.335633 0.54943 0.765165
vn -0.456997 0.549429 0.699486
vn -0.456997 0.549429 0.699486
vn -0.821562 0.570118 0.0
vn -0.832633 0.54452 -0.1011
vn 0.068998 0.54943 0.832686
vn 0.068998 0.54943 0.832686
vn 0.068998 0.54943 0.832686
vn -0.659359 0.549429 0.513199
vn -0.659359 0.549429 0.5132
vn -0.778567 0.553758 -0.295271
vn -0.687217 0.550203 -0.474352
vn -0.780891 0.564218 -0.26808
vn -0.205113 0.54943 0.809973
vn -0.205113 0.54943 0.809973
vn -0.205113 0.54943 0.809973
vn -0.790268 0.549429 0.271299
vn -0.790268 0.549429 0.271299
vn -0.556604 0.543564 -0.628276
vn -0.649965 0.567118 -0.505888
vn -0.456997 0.54943 0.699486
vn -0.456997 0.54943 0.699486
vn -0.456997 0.54943 0.699486
vn -0.83554 0.549429 0.0
vn -0.83554 0.549429 0.0
vn -0.389268 0.546233 -0.741687
vn -0.449534 0.56964 -0.688063
vn -0.659358 0.54943 0.513199
vn -0.659358 0.54943 0.513199
vn -0.659358 0.54943 0.513199
vn -0.790268 0.549429 -0.271299
vn -0.790268 0.549429 -0.271299
vn -0.198591 0.558017 -0.805716
vn 0.0 0.547372 -0.83689
vn -0.20333 0.560321 -0.80293
vn -0.790268 0.54943 0.271299
vn -0.790268 0.54943 0.271299
vn -0.790268 0.54943 0.271299
vn -0.456997 0.549429 -0.699486
vn -0.659359 0.549429 -0.513199
vn -0.659359 0.549429 -0.5132
vn 0.200903 0.543373 -0.815098
vn 0.067906 0.569041 -0.819501
vn -0.83554 0.54943 0.0
vn -0.83554 0.54943 0.0
vn -0.83554 0.54943 0.0
vn -0.456997 0.549429 -0.699486
vn 0.388519 0.548695 -0.740261
vn 0.551264 0.555801 -0.622249
vn 0.330551 0.5682 -0.753581
vn -0.790268 0.54943 -0.271299
vn -0.790268 0.54943 -0.271299
vn -0.790268 0.54943 -0.271299
vn -0.205113 0.549429 -0.809973
vn -0.205113 0.549429 -0.809973
vn 0.689868 0.545282 -0.476182
vn 0.560023 0.562396 -0.608347
vn -0.659358 0.54943 -0.513199
vn -0.659358 0.54943 -0.513199
vn -0.659358 0.54943 -0.513199
vn 0.068998 0.549429 -0.832686
vn 0.068998 0.549429 -0.832686
vn 0.784591 0.543947 -0.297556
vn 0.722616 0.569999 -0.39106
vn 0.813303 0.565791 -0.135716
vn -0.456997 0.54943 -0.699486
vn -0.456997 0.54943 -0.699486
vn -0.456997 0.54943 -0.699486
vn 0.335633 0.549429 -0.765165
vn 0.335633 0.549429 -0.765165
vn -0.205113 0.54943 -0.809973
vn -0.205113 0.54943 -0.809973
vn -0.205113 0.54943 -0.809973
vn 0.565896 0.549429 -0.614727
vn 0.565896 0.549429 -0.614727
vn 0.068998 0.54943 -0.832686
vn 0.068998 0.54943 -0.832686
vn 0.068998 0.54943 -0.832686
vn 0.734836 0.549429 -0.397673
vn 0.824144 0.549429 -0.137525
vn 0.734836 0.549429 -0.397673
vn 0.824145 0.549429 -0.137526
vn 0.335633 0.54943 -0.765165
vn 0.335633 0.54943 -0.765165
vn 0.335633 0.54943 -0.765165
vn 0.565896 0.54943 -0.614727
vn 0.565896 0.54943 -0.614727
vn 0.565896 0.54943 -0.614727
vn 0.824144 0.54943 -0.137525
vn 0.734836 0.54943 -0.397673
vn 0.734836 0.54943 -0.397673
vn 0.734836 0.54943 -0.397673
vn 0.824144 0.54943 -0.137525
vn 0.824144 0.54943 -0.137525
vn 0.0 -1.0 0.0
vn 0.0 -1.0 0.0
vn 0.0 -1.0 0.0
vn 0.0 -1.0 0.0
vn 0.0 -1.0 0.0
vn 0.0 -1.0 0.0
vn 0.0 -1.0 0.0
vn 0.0 -1.0 0.0
vn -0.0 -1.0 0.0
vn 0.0 -1.0 0.0
vn 0.0 -1.0 0.0
vn 0.0 -1.0 0.0
vn 0.0 -1.0 0.0
vn 0.0 -1.0 0.0
vn 0.0 -1.0 0.0
vn 0.0 -1.0 0.0
vn 0.0 -1.0 0.0
vn 0.0 -1.0 0.0
vn 0.0 -1.0 0.0
vn 0.0 -1.0 0.0
vn 0.0 -1.0 -0.0
vn 0.0 -1.0 0.0
vn 0.0 -1.0 0.0
vn 0.0 -1.0 0.0
f 1//1 2//1 3//1 
f 4//2 2//2 1//2 
f 3//3 5//3 6//3 
f 2//4 5//4 3//4 
f 6//5 7//5 8//5 
f 5//6 7//6 6//6 
f 8//7 9//7 10//7 
f 10//8 9//8 11//8 
f 7//9 9//9 8//9 
f 9//10 12//10 11//10 
f 11//11 13//11 14//11 
f 12//12 13//12 11//12 
f 14//13 15//13 16//13 
f 13//14 15//14 14//14 
f 16//15 17//15 18//15 
f 15//16 17//16 16//16 
f 18//17 19//17 20//17 
f 20//18 19//18 21//18 
f 17//19 19//19 18//19 
f 19//20 22//20 21//20 
f 22//21 23//21 21//21 
f 21//22 23//22 24//22 
f 23//23 25//23 24//23 
f 24//24 25//24 26//24 
f 26//25 25//25 27//25 
f 25//26 28//26 27//26 
f 28//27 29//27 27//27 
f 27//28 29//28 30//28 
f 30//29 31//29 32//29 
f 29//30 31//30 30//30 
f 32//31 33//31 34//31 
f 31//32 33//32 32//32 
f 34//33 35//33 36//33 
f 33//34 35//34 34//34 
f 36//35 37//35 38//35 
f 35//36 37//36 36//36 
f 38//37 39//37 40//37 
f 37//38 39//38 38//38 
f 40//39 41//39 42//39 
f 42//40 41//40 43//40 
f 39//41 41//41 40//41 
f 41//42 44//42 43//42 
f 43//43 45//43 46//43 
f 44//44 45//44 43//44 
f 46//45 47//45 48//45 
f 45//46 47//46 46//46 
f 48//47 49//47 50//47 
f 47//48 49//48 48//48 
f 50//49 51//49 52//49 
f 52//50 51//50 1//50 
f 49//51 51//51 50//51 
f 51//52 4//52 1//52 
f 53//53 45//53 54//53 
f 47//54 45//54 53//54 
f 55//55 49//55 53//55 
f 53//56 49//56 47//56 
f 54//57 44//57 56//57 
f 45//58 44//58 54//58 
f 57//59 51//59 55//59 
f 55//60 51//60 49//60 
f 56//61 41//61 58//61 
f 44//62 41//62 56//62 
f 59//63 4//63 57//63 
f 57//64 4//64 51//64 
f 58//65 39//65 60//65 
f 41//66 39//66 58//66 
f 61//67 2//67 59//67 
f 59//68 2//68 4//68 
f 60//69 37//69 62//69 
f 39//70 37//70 60//70 
f 63//71 5//71 61//71 
f 61//72 5//72 2//72 
f 62//73 35//73 64//73 
f 37//74 35//74 62//74 
f 65//75 7//75 63//75 
f 63//76 7//76 5//76 
f 33//77 66//77 35//77 
f 35//78 66//78 64//78 
f 65//79 67//79 7//79 
f 7//80 67//80 9//80 
f 33//81 68//81 66//81 
f 31//82 68//82 33//82 
f 67//83 69//83 9//83 
f 9//84 69//84 12//84 
f 31//85 70//85 68//85 
f 29//86 70//86 31//86 
f 69//87 71//87 12//87 
f 12//88 71//88 13//88 
f 28//89 72//89 29//89 
f 29//90 72//90 70//90 
f 13//91 73//91 15//91 
f 71//92 73//92 13//92 
f 28//93 74//93 72//93 
f 25//94 74//94 28//94 
f 15//95 75//95 17//95 
f 73//96 75//96 15//96 
f 25//97 76//97 74//97 
f 23//98 76//98 25//98 
f 75//99 77//99 17//99 
f 17//100 77//100 19//100 
f 23//101 78//101 76//101 
f 19//102 78//102 22//102 
f 22//103 78//103 23//103 
f 77//104 78//104 19//104 
f 59//105 79//105 61//105 
f 57//106 79//106 59//106 
f 61//107 80//107 63//107 
f 79//108 80//108 61//108 
f 63//109 81//109 65//109 
f 80//110 81//110 63//110 
f 65//111 82//111 67//111 
f 67//112 82//112 69//112 
f 81//113 82//113 65//113 
f 83//114 84//114 79//114 
f 79//115 84//115 80//115 
f 69//116 85//116 71//116 
f 82//117 85//117 69//117 
f 84//118 86//118 80//118 
f 80//119 86//119 81//119 
f 71//120 87//120 73//120 
f 73//121 87//121 75//121 
f 85//122 87//122 71//122 
f 86//123 88//123 81//123 
f 81//124 88//124 82//124 
f 75//125 89//125 77//125 
f 87//126 89//126 75//126 
f 90//127 91//127 83//127 
f 92//128 91//128 90//128 
f 83//129 91//129 84//129 
f 88//130 93//130 82//130 
f 82//131 93//131 85//131 
f 77//132 94//132 78//132 
f 89//133 94//133 77//133 
f 91//134 95//134 84//134 
f 92//135 95//135 91//135 
f 84//136 95//136 86//136 
f 85//137 96//137 87//137 
f 93//138 96//138 85//138 
f 78//139 97//139 76//139 
f 76//140 97//140 74//140 
f 94//141 97//141 78//141 
f 95//142 98//142 86//142 
f 86//143 98//143 88//143 
f 92//144 98//144 95//144 
f 87//145 99//145 89//145 
f 96//146 99//146 87//146 
f 74//147 100//147 72//147 
f 97//148 100//148 74//148 
f 98//149 101//149 88//149 
f 88//150 101//150 93//150 
f 92//151 101//151 98//151 
f 89//152 102//152 94//152 
f 99//153 102//153 89//153 
f 100//154 103//154 72//154 
f 72//155 103//155 70//155 
f 92//156 104//156 101//156 
f 101//157 104//157 93//157 
f 93//158 104//158 96//158 
f 94//159 105//159 97//159 
f 102//160 105//160 94//160 
f 70//161 106//161 68//161 
f 68//162 106//162 66//162 
f 103//163 106//163 70//163 
f 96//164 107//164 99//164 
f 104//165 107//165 96//165 
f 92//166 107//166 104//166 
f 97//167 108//167 100//167 
f 105//168 108//168 97//168 
f 66//169 109//169 64//169 
f 106//170 109//170 66//170 
f 99//171 110//171 102//171 
f 107//172 110//172 99//172 
f 92//173 110//173 107//173 
f 108//174 111//174 100//174 
f 100//175 111//175 103//175 
f 64//176 112//176 62//176 
f 109//177 112//177 64//177 
f 92//178 113//178 110//178 
f 110//179 113//179 102//179 
f 102//180 113//180 105//180 
f 103//181 114//181 106//181 
f 111//182 114//182 103//182 
f 62//183 115//183 60//183 
f 60//184 115//184 58//184 
f 112//185 115//185 62//185 
f 105//186 116//186 108//186 
f 92//187 116//187 113//187 
f 113//188 116//188 105//188 
f 109//189 117//189 112//189 
f 106//190 117//190 109//190 
f 114//191 117//191 106//191 
f 58//192 118//192 56//192 
f 115//193 118//193 58//193 
f 92//194 119//194 116//194 
f 108//195 119//195 111//195 
f 116//196 119//196 108//196 
f 117//197 120//197 112//197 
f 56//198 121//198 54//198 
f 54//199 121//199 53//199 
f 118//200 121//200 56//200 
f 111//201 122//201 114//201 
f 92//202 122//202 119//202 
f 119//203 122//203 111//203 
f 120//204 123//204 112//204 
f 112//205 123//205 115//205 
f 53//206 124//206 55//206 
f 121//207 124//207 53//207 
f 114//208 125//208 117//208 
f 92//209 125//209 122//209 
f 122//210 125//210 114//210 
f 115//211 126//211 118//211 
f 123//212 126//212 115//212 
f 55//213 127//213 57//213 
f 124//214 127//214 55//214 
f 57//215 127//215 79//215 
f 92//216 128//216 125//216 
f 117//217 128//217 120//217 
f 125//218 128//218 117//218 
f 126//219 129//219 118//219 
f 118//220 129//220 121//220 
f 120//221 130//221 123//221 
f 128//222 130//222 120//222 
f 92//223 130//223 128//223 
f 129//224 131//224 121//224 
f 121//225 131//225 124//225 
f 130//226 132//226 123//226 
f 92//227 132//227 130//227 
f 123//228 132//228 126//228 
f 124//229 133//229 127//229 
f 79//230 133//230 83//230 
f 131//231 133//231 124//231 
f 127//232 133//232 79//232 
f 92//233 134//233 132//233 
f 132//234 134//234 126//234 
f 126//235 134//235 129//235 
f 92//236 135//236 134//236 
f 129//237 135//237 131//237 
f 134//238 135//238 129//238 
f 133//239 136//239 83//239 
f 131//240 136//240 133//240 
f 92//241 136//241 135//241 
f 135//242 136//242 131//242 
f 83//243 136//243 90//243 
f 90//244 136//244 92//244 
f 8//245 1//245 3//245 
f 8//246 3//246 6//246 
f 8//247 10//247 11//247 
f 8//248 11//248 14//248 
f 8//249 14//249 16//249 
f 8//250 16//250 18//250 
f 8//251 18//251 20//251 
f 8//252 20//252 21//252 
f 8//253 21//253 24//253 
f 8//254 24//254 26//254 
f 8//255 26//255 27//255 
f 8//256 27//256 30//256 
f 8//257 30//257 32//257 
f 8//258 32//258 34//258 
f 8//259 34//259 36//259 
f 8//260 36//260 38//260 
f 8//261 38//261 40//261 
f 8//262 40//262 42//262 
f 8//263 42//263 43//263 
f 8//264 43//264 46//264 
f 8//265 46//265 48//265 
f 8//266 48//266 50//266 
f 8//267 50//267 52//267 
f 8//268 52//268 1//268 
